<svg width="32" height="24" viewBox="0 0 32 24" fill="none" xmlns="http://www.w3.org/2000/svg">
<rect width="32" height="24" fill="#1E1E1E"/>
<g id="Mobile/Landing" clip-path="url(#clip0_2893_10348)">
<rect width="360" height="3751" transform="translate(-132 -3719)" fill="white"/>
<g id="footer">
<g id="partners &#38; social media">
<mask id="path-1-outside-1_2893_10348" maskUnits="userSpaceOnUse" x="-132" y="-10" width="360" height="42" fill="black">
<rect fill="white" x="-132" y="-10" width="360" height="42"/>
<path d="M-132 -8H228V32H-132V-8Z"/>
</mask>
<path d="M-132 -8H228V32H-132V-8Z" fill="#021736"/>
<path d="M-132 -6H228V-10H-132V-6Z" fill="#021736" mask="url(#path-1-outside-1_2893_10348)"/>
<g id="partners">
<g id="master card" style="mix-blend-mode:luminosity">
<g clip-path="url(#clip1_2893_10348)">
<path id="Vector" d="M0 0H32V24H0V0Z" fill="white"/>
<path id="Vector_2" d="M28.4444 0H3.55556C1.59188 0 0 1.79086 0 4V20C0 22.2091 1.59188 24 3.55556 24H28.4444C30.4081 24 32 22.2091 32 20V4C32 1.79086 30.4081 0 28.4444 0Z" fill="white"/>
<path id="Vector_3" d="M28.4443 0.499756H3.55545C1.83723 0.499756 0.444336 2.06676 0.444336 3.99976V19.9998C0.444336 21.9328 1.83723 23.4998 3.55545 23.4998H28.4443C30.1626 23.4998 31.5554 21.9328 31.5554 19.9998V3.99976C31.5554 2.06676 30.1626 0.499756 28.4443 0.499756Z" stroke="#333333" stroke-opacity="0.07" stroke-width="0.970471"/>
<path id="Vector_4" d="M12.4932 17.6457C15.5271 17.6457 17.9865 15.0387 17.9865 11.8228C17.9865 8.60697 15.5271 6 12.4932 6C9.4594 6 7 8.60697 7 11.8228C7 15.0387 9.4594 17.6457 12.4932 17.6457Z" fill="#D82F2C"/>
<path id="Vector_5" d="M19.8175 17.6457C22.8513 17.6457 25.3107 15.0387 25.3107 11.8228C25.3107 8.60697 22.8513 6 19.8175 6C16.7836 6 14.3242 8.60697 14.3242 11.8228C14.3242 15.0387 16.7836 17.6457 19.8175 17.6457Z" fill="#EAA33F"/>
<path id="Vector_6" fill-rule="evenodd" clip-rule="evenodd" d="M16.1553 16.1633C17.2791 15.097 17.9864 13.5475 17.9864 11.823C17.9864 10.0985 17.2791 8.54911 16.1553 7.48291C15.0315 8.54911 14.3242 10.0985 14.3242 11.823C14.3242 13.5475 15.0315 15.097 16.1553 16.1633Z" fill="#ED6A2D"/>
</g>
</g>
</g>
</g>
</g>
</g>
<defs>
<clipPath id="clip0_2893_10348">
<rect width="360" height="3751" fill="white" transform="translate(-132 -3719)"/>
</clipPath>
<clipPath id="clip1_2893_10348">
<rect width="32" height="24" rx="4" fill="white"/>
</clipPath>
</defs>
</svg>
