<svg width="32" height="24" viewBox="0 0 32 24" fill="none" xmlns="http://www.w3.org/2000/svg">
<rect width="32" height="24" fill="#1E1E1E"/>
<g id="Mobile/Landing" clip-path="url(#clip0_2893_10348)">
<rect width="360" height="3751" transform="translate(-24 -3719)" fill="white"/>
<g id="footer">
<g id="partners &#38; social media">
<mask id="path-1-outside-1_2893_10348" maskUnits="userSpaceOnUse" x="-24" y="-10" width="360" height="42" fill="black">
<rect fill="white" x="-24" y="-10" width="360" height="42"/>
<path d="M-24 -8H336V32H-24V-8Z"/>
</mask>
<path d="M-24 -8H336V32H-24V-8Z" fill="#021736"/>
<path d="M-24 -6H336V-10H-24V-6Z" fill="#021736" mask="url(#path-1-outside-1_2893_10348)"/>
<g id="partners">
<g id="paypal" style="mix-blend-mode:luminosity">
<g clip-path="url(#clip1_2893_10348)">
<path id="Vector" d="M0 0H32V24H0V0Z" fill="white"/>
<path id="Vector_2" d="M28.4444 0H3.55556C1.59188 0 0 1.79086 0 4V20C0 22.2091 1.59188 24 3.55556 24H28.4444C30.4081 24 32 22.2091 32 20V4C32 1.79086 30.4081 0 28.4444 0Z" fill="white"/>
<path id="Vector_3" d="M28.4443 0.499756H3.55545C1.83723 0.499756 0.444336 2.06676 0.444336 3.99976V19.9998C0.444336 21.9328 1.83723 23.4998 3.55545 23.4998H28.4443C30.1626 23.4998 31.5554 21.9328 31.5554 19.9998V3.99976C31.5554 2.06676 30.1626 0.499756 28.4443 0.499756Z" stroke="#333333" stroke-opacity="0.07" stroke-width="0.970471"/>
<g id="Group 61429">
<path id="Vector_4" d="M7.12246 8.61209C6.90583 8.40211 6.64624 8.24163 6.36157 8.14171C6.07691 8.0418 5.77395 8.00484 5.47362 8.03336H3.28972C3.21339 8.03485 3.13999 8.06293 3.08217 8.11277C3.02435 8.16262 2.98575 8.23108 2.97305 8.30635L2.00122 14.0718C1.99813 14.0994 2.00093 14.1274 2.00941 14.1538C2.01789 14.1802 2.03188 14.2045 2.05046 14.2251C2.06902 14.2458 2.09175 14.2622 2.11714 14.2735C2.14253 14.2847 2.17001 14.2904 2.19777 14.2902H3.28972C3.35504 14.2874 3.41803 14.2651 3.47057 14.2262C3.52311 14.1872 3.5628 14.1335 3.58455 14.0718L3.82477 12.4994C3.83289 12.4242 3.86864 12.3545 3.92512 12.3042C3.98161 12.2537 4.05479 12.226 4.13052 12.2264H4.84029C5.15424 12.2627 5.47231 12.2341 5.77469 12.1421C6.07708 12.0502 6.35733 11.8971 6.59801 11.6922C6.83869 11.4874 7.03466 11.2353 7.17373 10.9515C7.31279 10.6677 7.39197 10.3583 7.40637 10.0425C7.46789 9.79793 7.47433 9.54277 7.42522 9.2954C7.37613 9.04803 7.27272 8.81464 7.12246 8.61209ZM5.73568 10.1299C5.61557 10.9379 4.99316 10.9379 4.40351 10.9379H4.065L4.29431 9.42014C4.30178 9.37569 4.3243 9.33516 4.35809 9.30534C4.39189 9.27553 4.43491 9.25822 4.47994 9.25634H4.63282C5.03684 9.25634 5.42994 9.25634 5.61557 9.48565C5.68354 9.57669 5.72972 9.68212 5.75055 9.79378C5.77137 9.90548 5.76628 10.0205 5.73568 10.1299Z" fill="#253B80"/>
<path id="Vector_5" d="M12.2222 10.0965H11.1302C11.0858 10.0989 11.0431 10.1149 11.008 10.1423C10.9729 10.1696 10.9469 10.2069 10.9337 10.2494V10.5661L10.8572 10.446C10.6919 10.2797 10.4911 10.1529 10.2699 10.0753C10.0485 9.99782 9.81257 9.9714 9.57965 9.99826C8.98225 10.0121 8.40974 10.2403 7.96674 10.6413C7.5237 11.0423 7.23964 11.5891 7.16641 12.1822C7.11118 12.4734 7.11865 12.773 7.18832 13.0611C7.25799 13.3491 7.38825 13.6191 7.57044 13.8528C7.74125 14.042 7.95309 14.1894 8.1896 14.284C8.42623 14.3787 8.68131 14.4179 8.9354 14.3988C9.21221 14.4018 9.48684 14.3481 9.74224 14.2411C9.99754 14.134 10.2284 13.9759 10.4205 13.7764V14.0931C10.4173 14.1435 10.4338 14.1932 10.4662 14.2317C10.4987 14.2704 10.5449 14.2951 10.5952 14.3005H11.567C11.6429 14.304 11.7174 14.2791 11.7759 14.2306C11.8344 14.1823 11.8729 14.1137 11.8837 14.0385L12.4624 10.3149C12.4746 10.2822 12.4768 10.2466 12.4686 10.2125C12.4604 10.1785 12.4422 10.1477 12.4163 10.1243C12.3904 10.1008 12.3581 10.0855 12.3235 10.0806C12.2889 10.0757 12.2535 10.0812 12.2222 10.0965ZM9.4923 13.2523C9.35875 13.2597 9.22532 13.2381 9.10094 13.1891C8.97646 13.1401 8.86421 13.0648 8.77161 12.9684C8.69179 12.8575 8.63523 12.7317 8.6052 12.5985C8.57517 12.4653 8.57233 12.3274 8.5969 12.1931C8.63141 11.8948 8.77358 11.6193 8.99666 11.4182C9.21986 11.2172 9.50857 11.1045 9.80896 11.1011C9.94425 11.095 10.0792 11.1193 10.204 11.1722C10.3287 11.2251 10.44 11.3053 10.5296 11.4069C10.619 11.5105 10.6823 11.6338 10.7146 11.7667C10.7469 11.8996 10.7472 12.0382 10.7153 12.1712C10.6826 12.4714 10.5393 12.7485 10.313 12.9485C10.0868 13.1484 9.79411 13.2567 9.4923 13.2523Z" fill="#253B80"/>
<path id="Vector_6" d="M17.9651 10.0966H16.8731C16.821 10.096 16.7695 10.1088 16.7236 10.1335C16.6778 10.1584 16.639 10.1946 16.6111 10.2386L15.1151 12.4225L14.4818 10.2932C14.4612 10.2278 14.4207 10.1704 14.3658 10.1294C14.311 10.0882 14.2446 10.0653 14.176 10.0639H13.0841C13.054 10.0638 13.0243 10.0709 12.9976 10.0847C12.9708 10.0986 12.9479 10.1188 12.9308 10.1435C12.9135 10.1683 12.9026 10.1968 12.8989 10.2267C12.8952 10.2565 12.8988 10.2869 12.9094 10.315L14.0996 13.8529L13.0076 15.4472C12.9874 15.4751 12.9753 15.5081 12.9727 15.5425C12.9701 15.5768 12.9772 15.6113 12.993 15.6419C13.0088 15.6724 13.033 15.6981 13.0626 15.7158C13.0922 15.7335 13.1261 15.7426 13.1605 15.742H14.2525C14.3038 15.745 14.355 15.7344 14.401 15.7114C14.4469 15.6884 14.4861 15.6538 14.5145 15.611L18.118 10.3587C18.1304 10.3317 18.1361 10.302 18.1346 10.2723C18.133 10.2426 18.1245 10.2138 18.1095 10.188C18.0945 10.1624 18.0736 10.1406 18.0485 10.1248C18.0233 10.1089 17.9948 10.0993 17.9651 10.0966Z" fill="#253B80"/>
<path id="Vector_7" d="M23.2067 8.61168C22.9896 8.4023 22.7299 8.24221 22.4454 8.14234C22.1608 8.04246 21.8581 8.00514 21.5578 8.03294H19.2975C19.2229 8.03274 19.1511 8.06078 19.0963 8.11143C19.0416 8.16209 19.0081 8.23158 19.0027 8.30593L18.0745 14.0714C18.0713 14.099 18.0742 14.127 18.0827 14.1534C18.0911 14.1798 18.1052 14.2042 18.1237 14.2248C18.1423 14.2453 18.165 14.2618 18.1904 14.2731C18.2158 14.2843 18.2432 14.29 18.271 14.2898H19.4285C19.4809 14.2875 19.5307 14.2663 19.5688 14.2301C19.6069 14.1941 19.6307 14.1455 19.636 14.0932L19.8981 12.4444C19.9083 12.37 19.9448 12.3018 20.0008 12.2518C20.0567 12.2017 20.1287 12.1734 20.2038 12.1714H20.9245C21.2379 12.2045 21.5546 12.1735 21.8557 12.0803C22.1567 11.9872 22.4357 11.8339 22.6756 11.6297C22.9157 11.4254 23.1117 11.1745 23.2518 10.8923C23.3917 10.61 23.473 10.3022 23.4906 9.98749C23.539 9.75097 23.5388 9.50694 23.49 9.27041C23.4412 9.03387 23.3448 8.80975 23.2067 8.61168ZM21.809 10.1622C21.6998 10.9702 21.0774 10.9702 20.4768 10.9702H20.1383L20.3785 9.45248C20.3798 9.42951 20.3858 9.40705 20.3959 9.38638C20.4059 9.36572 20.42 9.34725 20.4373 9.33202C20.4545 9.3168 20.4746 9.30514 20.4963 9.2977C20.5182 9.29027 20.5411 9.2872 20.5641 9.28869H20.7279C21.132 9.28869 21.5141 9.28869 21.7107 9.51799C21.7701 9.60684 21.8096 9.70751 21.8265 9.81299C21.8436 9.91859 21.8376 10.0265 21.809 10.1294V10.1622Z" fill="#179BD7"/>
<path id="Vector_8" d="M28.2956 10.0971H27.2037C27.1583 10.0959 27.1139 10.1105 27.0781 10.1383C27.0423 10.1663 27.0172 10.2056 27.0071 10.2499V10.5666L26.9307 10.4465C26.768 10.2796 26.5693 10.1524 26.3496 10.0748C26.1299 9.99714 25.8953 9.97115 25.6641 9.99878C25.0666 10.0126 24.4941 10.2409 24.0511 10.6417C23.6081 11.0427 23.324 11.5896 23.2508 12.1827C23.1896 12.4737 23.1941 12.7746 23.2641 13.0637C23.3339 13.3527 23.4674 13.6224 23.6549 13.8534C23.8229 14.0428 24.0327 14.1908 24.2677 14.2855C24.5025 14.3802 24.7563 14.4192 25.0089 14.3993C25.2873 14.4018 25.5634 14.348 25.8204 14.241C26.0776 14.1341 26.3104 13.9762 26.5049 13.7769V14.0936C26.5017 14.1197 26.5042 14.1462 26.5122 14.1713C26.52 14.1964 26.5332 14.2196 26.5508 14.2391C26.5684 14.2588 26.5899 14.2744 26.6139 14.2851C26.6381 14.2958 26.6642 14.3012 26.6905 14.3011H27.6623C27.7364 14.3018 27.8082 14.2756 27.8644 14.2275C27.9207 14.1792 27.9575 14.1123 27.9681 14.039L28.5031 10.3154C28.5086 10.2865 28.507 10.2567 28.4987 10.2285C28.4904 10.2002 28.4755 10.1745 28.4553 10.1531C28.435 10.1318 28.41 10.1156 28.3822 10.1058C28.3544 10.0961 28.3248 10.093 28.2956 10.0971ZM25.5767 13.2528C25.4414 13.261 25.3061 13.2399 25.1798 13.1909C25.0535 13.1418 24.9393 13.0662 24.8451 12.9689C24.7648 12.8584 24.7088 12.7323 24.6805 12.5987C24.6524 12.4651 24.6526 12.327 24.6813 12.1936C24.711 11.8953 24.8502 11.6185 25.072 11.4168C25.2939 11.2151 25.5826 11.1028 25.8824 11.1016C26.0214 11.0894 26.1613 11.111 26.2901 11.1648C26.4189 11.2185 26.5327 11.3027 26.6218 11.41C26.7109 11.5173 26.7727 11.6448 26.8018 11.7813C26.8308 11.9177 26.8263 12.0592 26.7888 12.1936C26.756 12.4898 26.6133 12.763 26.3889 12.9592C26.1645 13.1553 25.8746 13.26 25.5767 13.2528Z" fill="#179BD7"/>
<path id="Vector_9" d="M30.7956 8.00043H29.7037C29.659 7.9973 29.6149 8.0114 29.5804 8.03985C29.5458 8.06829 29.5235 8.1089 29.5181 8.1533L28.6445 14.0717C28.6397 14.0987 28.6409 14.1264 28.648 14.1528C28.6551 14.1792 28.668 14.2038 28.6858 14.2247C28.7035 14.2455 28.7256 14.2622 28.7506 14.2736C28.7755 14.2848 28.8027 14.2905 28.8301 14.2901H29.7583C29.8323 14.2908 29.9042 14.2646 29.9604 14.2165C30.0166 14.1682 30.0534 14.1013 30.064 14.028L30.9813 8.2079C30.9843 8.18176 30.9818 8.15525 30.9739 8.13014C30.966 8.10504 30.9528 8.0819 30.9353 8.06228C30.9177 8.04265 30.8962 8.027 30.8721 8.01634C30.848 8.00567 30.8219 8.00025 30.7956 8.00043Z" fill="#179BD7"/>
</g>
</g>
</g>
</g>
</g>
</g>
</g>
<defs>
<clipPath id="clip0_2893_10348">
<rect width="360" height="3751" fill="white" transform="translate(-24 -3719)"/>
</clipPath>
<clipPath id="clip1_2893_10348">
<rect width="32" height="24" rx="4" fill="white"/>
</clipPath>
</defs>
</svg>
